<svg width="60" height="21" viewBox="0 0 60 21" fill="none" xmlns="http://www.w3.org/2000/svg">
  <rect width="60" height="21" rx="2" fill="#006FCF"/>
  <path d="M8.5 14.5L10.2 7.5H12.1L10.4 14.5H8.5ZM13.8 14.5L15.5 7.5H17.4L15.7 14.5H13.8ZM11.2 11.8L12.1 8.4L12.6 11.8H11.2ZM18.8 14.5L20.5 7.5H22.2L22.5 10.2L23.8 7.5H25.5L23.8 14.5H22.1L21.8 11.8L20.5 14.5H18.8ZM27.2 14.5V7.5H31.5C32.8 7.5 33.5 8.3 33.5 9.5C33.5 10.7 32.8 11.5 31.5 11.5H29.2V14.5H27.2ZM29.2 9.8H31.2C31.6 9.8 31.8 9.6 31.8 9.2C31.8 8.8 31.6 8.6 31.2 8.6H29.2V9.8ZM35.2 14.5L36.9 7.5H40.8C42.1 7.5 42.8 8.2 42.8 9.3C42.8 10.1 42.4 10.7 41.7 11L42.9 14.5H40.7L39.7 11.3H38.7V14.5H35.2ZM38.7 9.8H40.5C40.9 9.8 41.1 9.6 41.1 9.2C41.1 8.8 40.9 8.6 40.5 8.6H38.7V9.8ZM44.5 14.5L46.2 7.5H51.5L51.2 8.8H48.1L47.9 9.8H50.8L50.5 11.1H47.6L47.4 12.2H50.7L50.4 13.5H44.5V14.5Z" fill="white"/>
</svg>
